<?xml version="1.0" standalone="no"?>
<!DOCTYPE svg PUBLIC "-//W3C//DTD SVG 20010904//EN"
 "http://www.w3.org/TR/2001/REC-SVG-20010904/DTD/svg10.dtd">
<svg version="1.0" xmlns="http://www.w3.org/2000/svg"
 width="513.000000pt" height="513.000000pt" viewBox="0 0 513.000000 513.000000"
 preserveAspectRatio="xMidYMid meet">
<metadata>
Created by potrace 1.14, written by Peter Selinger 2001-2017
</metadata>
<g transform="translate(0.000000,513.000000) scale(0.100000,-0.100000)"
fill="#000000" stroke="none">
<path d="M2379 5116 c-2 -2 -35 -7 -74 -10 -120 -10 -140 -14 -408 -71 -9 -2
-21 -6 -25 -9 -5 -3 -19 -7 -33 -10 -61 -13 -245 -81 -354 -131 -33 -15 -62
-27 -64 -26 -2 2 -7 -1 -10 -6 -3 -4 -24 -17 -46 -28 -95 -48 -315 -188 -323
-207 -2 -5 -10 -8 -18 -8 -8 0 -14 -4 -14 -10 0 -5 -5 -10 -11 -10 -6 0 -24
-12 -39 -27 -16 -16 -44 -39 -62 -53 -69 -54 -287 -281 -366 -382 -45 -58 -82
-109 -82 -112 0 -4 -8 -16 -18 -27 -11 -10 -25 -32 -33 -47 -8 -15 -20 -33
-27 -40 -6 -7 -12 -19 -12 -27 0 -7 -4 -15 -9 -17 -12 -4 -110 -195 -158 -308
-37 -88 -105 -284 -117 -341 -3 -13 -14 -62 -25 -109 -19 -84 -23 -102 -41
-230 -10 -64 -7 -617 3 -675 3 -16 8 -48 12 -70 18 -110 77 -345 95 -377 6
-10 10 -23 10 -29 0 -22 59 -165 123 -299 40 -84 134 -250 147 -260 3 -3 9
-12 12 -20 10 -27 129 -183 214 -280 94 -107 178 -190 274 -271 36 -29 67 -56
70 -60 3 -3 28 -21 55 -40 28 -18 52 -37 55 -40 11 -15 210 -135 294 -178 158
-82 408 -179 527 -205 13 -3 51 -12 84 -21 33 -8 75 -17 93 -20 17 -3 49 -8
70 -12 49 -10 764 -10 822 0 85 14 105 18 185 37 157 37 351 105 499 175 41
19 79 35 84 35 6 0 12 4 14 8 2 4 34 25 72 46 122 66 233 143 396 273 110 88
430 439 430 471 0 6 4 12 9 14 5 2 37 48 72 103 99 158 232 434 254 527 2 9 8
25 13 35 8 16 58 198 68 246 2 10 5 26 8 35 3 9 8 33 11 52 3 19 7 46 10 60
37 196 42 619 10 781 -3 13 -7 42 -10 64 -3 22 -7 47 -10 55 -2 8 -6 26 -9 40
-12 68 -39 169 -73 272 -20 62 -38 115 -38 118 -1 3 -9 22 -18 42 -10 21 -17
40 -17 43 0 13 -126 262 -152 301 -15 23 -28 45 -28 49 0 9 -62 99 -72 103 -4
2 -8 8 -8 14 0 6 -10 23 -22 38 -13 15 -30 37 -38 50 -8 12 -19 28 -25 34 -5
6 -32 38 -60 71 -79 95 -323 335 -341 335 -4 0 -14 8 -23 18 -33 36 -260 192
-280 192 -5 0 -11 4 -13 8 -13 33 -465 233 -578 257 -8 1 -35 8 -60 15 -25 7
-52 14 -60 16 -8 2 -42 10 -75 18 -33 8 -78 17 -100 20 -22 3 -56 8 -75 11
-19 3 -51 8 -70 11 -42 6 -465 15 -471 10z"/>
</g>
</svg>
